<svg xmlns="http://www.w3.org/2000/svg" viewBox="0 0 600 148"><defs><style>.a{fill:#fff;}</style></defs><title>logowhite</title><rect class="a" x="27.75" y="74.18" width="43.68" height="43.68"/><rect class="a" x="71.15" y="29.38" width="43.68" height="43.68"/><path class="a" d="M142.24,57.54c1.32-22,21-28.59,40.17-28.59,17,0,37.53,3.8,37.53,24.3V97.72c0,7.77.82,15.54,3,19h-23.8a34.49,34.49,0,0,1-1.65-8.26c-7.44,7.76-18.36,10.58-28.77,10.58-16.2,0-29.09-8.11-29.09-25.63,0-19.35,14.54-24,29.09-26,14.38-2.14,27.77-1.65,27.77-11.24,0-10.08-6.94-11.57-15.2-11.57-8.93,0-14.72,3.65-15.54,12.89Zm54.22,17.37c-4,3.47-12.23,3.63-19.5,5-7.28,1.5-13.89,4-13.89,12.57,0,8.77,6.78,10.91,14.38,10.91,18.35,0,19-14.55,19-19.67Z"/><path class="a" d="M318.35,116.73H296v-11.9h-.49a30.51,30.51,0,0,1-26.12,14.22c-25,0-31.25-14.06-31.25-35.22V31.27h23.48V79.54c0,14,4.13,21,15,21,12.73,0,18.18-7.1,18.18-24.45V31.27h23.48Z"/><path class="a" d="M336.26,31.27h22.32V47.14h.33C363.21,36.38,374.78,29,386.19,29a17.64,17.64,0,0,1,5.12.82V51.59a43.33,43.33,0,0,0-8.43-.82c-17.19,0-23.14,12.4-23.14,27.44v38.52H336.26Z"/><path class="a" d="M417,79.7c.66,14.88,7.94,21.66,21,21.66,9.43,0,17-5.79,18.52-11.08h20.66c-6.61,20.17-20.66,28.77-40,28.77-26.95,0-43.65-18.53-43.65-45,0-25.61,17.69-45.12,43.65-45.12,29.09,0,43.14,24.46,41.49,50.75Zm38.19-14.87c-2.14-11.92-7.27-18.19-18.67-18.19-14.88,0-19.19,11.56-19.52,18.19Z"/><path class="a" d="M491.58,57.54c1.32-22,21-28.59,40.17-28.59,17,0,37.53,3.8,37.53,24.3V97.72c0,7.77.82,15.54,3,19h-23.8a34.49,34.49,0,0,1-1.65-8.26c-7.44,7.76-18.36,10.58-28.77,10.58-16.2,0-29.1-8.11-29.1-25.63,0-19.35,14.55-24,29.1-26,14.38-2.14,27.77-1.65,27.77-11.24,0-10.08-6.94-11.57-15.2-11.57-8.94,0-14.72,3.65-15.55,12.89ZM545.8,74.91c-4,3.47-12.23,3.63-19.51,5-7.27,1.5-13.88,4-13.88,12.57,0,8.77,6.78,10.91,14.38,10.91,18.35,0,19-14.55,19-19.67Z"/></svg>